<svg width="1600" height="1000" viewBox="0 0 1600 1000" fill="none" xmlns="http://www.w3.org/2000/svg">
  <defs>
    <style>
      .page{fill:#f5f7fa}.sidebar{fill:#101827}.sidebar-active{fill:#2563eb}.topbar{fill:#fff;stroke:#e5e7eb}
      .card{fill:#fff;stroke:#e5e7eb;stroke-width:1.2}.panel{fill:#f8fafc;stroke:#e5e7eb;stroke-width:1.1}.input{fill:#fff;stroke:#cbd5e1;stroke-width:1.2}
      .ghost{fill:#fff;stroke:#cbd5e1;stroke-width:1.2}.button{fill:#2563eb}.table-head{fill:#f8fafc}.line{stroke:#e5e7eb}.strong-line{stroke:#93c5fd;stroke-width:2.4}
      .brand{font:800 26px "PingFang SC","Hiragino Sans GB","Microsoft YaHei",sans-serif;fill:#fff}
      .title{font:700 30px "PingFang SC","Hiragino Sans GB","Microsoft YaHei",sans-serif;fill:#0f172a}
      .section{font:700 20px "PingFang SC","Hiragino Sans GB","Microsoft YaHei",sans-serif;fill:#0f172a}
      .label{font:500 15px "PingFang SC","Hiragino Sans GB","Microsoft YaHei",sans-serif;fill:#64748b}
      .body{font:400 16px "PingFang SC","Hiragino Sans GB","Microsoft YaHei",sans-serif;fill:#334155}
      .body-strong{font:600 16px "PingFang SC","Hiragino Sans GB","Microsoft YaHei",sans-serif;fill:#0f172a}
      .small{font:400 13px "PingFang SC","Hiragino Sans GB","Microsoft YaHei",sans-serif;fill:#64748b}
      .metric{font:800 30px "PingFang SC","Hiragino Sans GB","Microsoft YaHei",sans-serif;fill:#0f172a}
      .sidebar-text{font:500 18px "PingFang SC","Hiragino Sans GB","Microsoft YaHei",sans-serif;fill:#cbd5e1}
      .sidebar-active-text{font:700 18px "PingFang SC","Hiragino Sans GB","Microsoft YaHei",sans-serif;fill:#fff}
      .sidebar-muted{font:400 14px "PingFang SC","Hiragino Sans GB","Microsoft YaHei",sans-serif;fill:#94a3b8}
      .button-text{font:700 16px "PingFang SC","Hiragino Sans GB","Microsoft YaHei",sans-serif;fill:#fff}
      .placeholder{font:400 15px "PingFang SC","Hiragino Sans GB","Microsoft YaHei",sans-serif;fill:#94a3b8}
      .required{fill:#ef4444}.help{fill:#2563eb}
      .chip-blue{fill:#dbeafe}.chip-green{fill:#dcfce7}.chip-orange{fill:#ffedd5}.chip-purple{fill:#ede9fe}.chip-gray{fill:#f1f5f9}.chip-red{fill:#fee2e2}
      .chip-text-blue{font:700 13px "PingFang SC","Hiragino Sans GB","Microsoft YaHei",sans-serif;fill:#1d4ed8}
      .chip-text-green{font:700 13px "PingFang SC","Hiragino Sans GB","Microsoft YaHei",sans-serif;fill:#15803d}
      .chip-text-orange{font:700 13px "PingFang SC","Hiragino Sans GB","Microsoft YaHei",sans-serif;fill:#c2410c}
      .chip-text-purple{font:700 13px "PingFang SC","Hiragino Sans GB","Microsoft YaHei",sans-serif;fill:#6d28d9}
      .chip-text-gray{font:700 13px "PingFang SC","Hiragino Sans GB","Microsoft YaHei",sans-serif;fill:#475569}
      .chip-text-red{font:700 13px "PingFang SC","Hiragino Sans GB","Microsoft YaHei",sans-serif;fill:#b91c1c}
    </style>
  </defs>
  <rect x="0" y="0" width="1600" height="1000" rx="0" class="page"/>

    <rect x="0" y="0" width="250" height="1000" rx="0" class="sidebar"/>
    <text x="32" y="55" class="brand" >Ingate</text>
    <text x="32" y="84" class="sidebar-muted" >AI Gateway Console</text>
    <text x="54" y="147" class="sidebar-text" >首页</text><text x="54" y="203" class="sidebar-text" >网关</text><text x="54" y="259" class="sidebar-text" >路由</text><rect x="18" y="287" width="214" height="44" rx="10" class="sidebar-active"/><text x="54" y="315" class="sidebar-active-text" >后端服务</text><text x="54" y="371" class="sidebar-text" >证书</text><text x="54" y="427" class="sidebar-text" >插件</text><text x="54" y="483" class="sidebar-text" >监控</text><text x="54" y="539" class="sidebar-text" >系统设置</text>
    <text x="32" y="914" class="sidebar-muted" >当前环境</text>
    <text x="32" y="944" class="sidebar-text" >生产环境</text>

  <rect x="250" y="0" width="1350" height="78" rx="0" class="topbar"/>
  <text x="290" y="49" class="title" >后端服务</text>
  <rect x="1370" y="20" width="174" height="38" rx="8" class="button"/><text x="1392" y="45" class="button-text" >创建服务</text>
  <rect x="290" y="110" width="294" height="108" rx="10" class="card"/><text x="314" y="148" class="label" >服务总数</text><text x="314" y="188" class="metric" >36</text><text x="408" y="186" class="small" >个</text><rect x="608" y="110" width="294" height="108" rx="10" class="card"/><text x="632" y="148" class="label" >健康服务</text><text x="632" y="188" class="metric" >33</text><text x="726" y="186" class="small" >个</text><rect x="926" y="110" width="294" height="108" rx="10" class="card"/><text x="950" y="148" class="label" >模型服务</text><text x="950" y="188" class="metric" >8</text><text x="1044" y="186" class="small" >个</text><rect x="1244" y="110" width="294" height="108" rx="10" class="card"/><text x="1268" y="148" class="label" >异常服务</text><text x="1268" y="188" class="metric" >2</text><text x="1362" y="186" class="small" >个</text>
    <rect x="290" y="248" width="1254" height="104" rx="10" class="card"/><text x="318" y="288" class="section" >后端服务管理</text><text x="318" y="316" class="small" >管理应用、模型服务、Agent 和 MCP 等路由目标</text>
    <text x="650" y="278" class="label" ></text><rect x="650" y="292" width="280" height="44" rx="8" class="input"/><text x="666" y="320" class="placeholder" >搜索服务名称、地址</text><text x="826" y="278" class="label" ></text><rect x="826" y="292" width="154" height="44" rx="8" class="input"/><text x="842" y="320" class="body-strong" >全部类型</text><text x="950" y="320" class="body" >⌄</text><text x="1002" y="278" class="label" ></text><rect x="1002" y="292" width="154" height="44" rx="8" class="input"/><text x="1018" y="320" class="body-strong" >全部状态</text><text x="1126" y="320" class="body" >⌄</text><rect x="1288" y="292" width="82" height="38" rx="8" class="button"/><text x="1310" y="317" class="button-text" >查询</text><rect x="1384" y="292" width="78" height="38" rx="8" class="ghost"/><text x="1406" y="317" class="body-strong" >重置</text>
    <rect x="290" y="382" width="1254" height="520" rx="10" class="card"/><rect x="290" y="382" width="1254" height="52" rx="10" class="table-head"/><text x="314" y="416" class="label" >服务名称</text><text x="483.1341463414634" y="416" class="label" >服务类型</text><text x="615.5" y="416" class="label" >接入信息</text><text x="880.2317073170732" y="416" class="label" >健康状态</text><text x="997.8902439024391" y="416" class="label" >关联路由</text><text x="1115.548780487805" y="416" class="label" >更新时间</text><text x="1343.5121951219514" y="416" class="label" >操作</text><line x1="290" y1="434" x2="1544" y2="434" class="line"/><text x="314" y="470" class="body-strong" >order-service</text><text x="483.1341463414634" y="470" class="body" >应用</text><text x="615.5" y="470" class="body" >HTTP / 3 endpoints</text><text x="880.2317073170732" y="470" class="body" >健康</text><text x="997.8902439024391" y="470" class="body" >12</text><text x="1115.548780487805" y="470" class="body" >2025-04-30 14:20:35</text><text x="1343.5121951219514" y="470" class="body" >详情 编辑 删除</text><line x1="314" y1="508" x2="1520" y2="508" class="line"/><text x="314" y="546" class="body-strong" >qwen-plus</text><text x="483.1341463414634" y="546" class="body" >模型服务</text><text x="615.5" y="546" class="body" >阿里云百炼 / OpenAI 兼容</text><text x="880.2317073170732" y="546" class="body" >健康</text><text x="997.8902439024391" y="546" class="body" >8</text><text x="1115.548780487805" y="546" class="body" >2025-04-30 10:12:06</text><text x="1343.5121951219514" y="546" class="body" >详情 编辑 删除</text><line x1="314" y1="584" x2="1520" y2="584" class="line"/><text x="314" y="622" class="body-strong" >github-mcp-server</text><text x="483.1341463414634" y="622" class="body" >MCP</text><text x="615.5" y="622" class="body" >SSE / stdio bridge</text><text x="880.2317073170732" y="622" class="body" >健康</text><text x="997.8902439024391" y="622" class="body" >3</text><text x="1115.548780487805" y="622" class="body" >2025-04-29 17:22:18</text><text x="1343.5121951219514" y="622" class="body" >详情 编辑 删除</text><text x="314" y="874" class="small" >共 3 条，前端本页分页</text><rect x="1330" y="852" width="86" height="38" rx="8" class="ghost"/><text x="1352" y="877" class="body-strong" >上一页</text><rect x="1428" y="852" width="86" height="38" rx="8" class="ghost"/><text x="1450" y="877" class="body-strong" >下一页</text>
</svg>
