<svg xmlns="http://www.w3.org/2000/svg" width="1600" height="1000" viewBox="0 0 1600 1000"><style>.bg{fill:#f6f8fb}.sidebar{fill:#111827}.brand{fill:#fff;font:700 24px 'PingFang SC','Noto Sans CJK SC',sans-serif}.brand-sub{fill:#9ca3af;font:400 13px 'PingFang SC','Noto Sans CJK SC',sans-serif}.nav-text{fill:#d1d5db;font:500 17px 'PingFang SC','Noto Sans CJK SC',sans-serif}.nav-active{fill:#2563eb;rx:8}.nav-active-text{fill:#fff;font:700 17px 'PingFang SC','Noto Sans CJK SC',sans-serif}.sidebar-muted{fill:#9ca3af;font:400 14px 'PingFang SC','Noto Sans CJK SC',sans-serif}.sidebar-text{fill:#fff;font:600 17px 'PingFang SC','Noto Sans CJK SC',sans-serif}.title{fill:#111827;font:700 28px 'PingFang SC','Noto Sans CJK SC',sans-serif}.subtitle{fill:#6b7280;font:400 15px 'PingFang SC','Noto Sans CJK SC',sans-serif}.section{fill:#111827;font:700 19px 'PingFang SC','Noto Sans CJK SC',sans-serif}.body{fill:#374151;font:400 15px 'PingFang SC','Noto Sans CJK SC',sans-serif}.body-strong{fill:#111827;font:700 15px 'PingFang SC','Noto Sans CJK SC',sans-serif}.small{fill:#6b7280;font:400 13px 'PingFang SC','Noto Sans CJK SC',sans-serif}.label{fill:#6b7280;font:600 13px 'PingFang SC','Noto Sans CJK SC',sans-serif}.metric{fill:#111827;font:800 30px 'DIN Alternate','PingFang SC',sans-serif}.card{fill:#fff;stroke:#e5e7eb;stroke-width:1;rx:8}.panel{fill:#fff;stroke:#e5e7eb;stroke-width:1;rx:6}.field{fill:#fff;stroke:#cbd5e1;stroke-width:1;rx:6}.table-head{fill:#f3f4f6;rx:6}.line{stroke:#e5e7eb;stroke-width:1}.button{fill:#fff;stroke:#cbd5e1;stroke-width:1;rx:6}.button-text{fill:#374151;font:600 14px 'PingFang SC','Noto Sans CJK SC',sans-serif}.button-primary{fill:#2563eb;rx:6}.button-primary-text{fill:#fff;font:700 14px 'PingFang SC','Noto Sans CJK SC',sans-serif}.env-pill{fill:#fff;stroke:#d1d5db;rx:20}.chip-blue{fill:#dbeafe;rx:16}.chip-green{fill:#dcfce7;rx:16}.chip-amber{fill:#fef3c7;rx:16}.chip-red{fill:#fee2e2;rx:16}.chip-purple{fill:#ede9fe;rx:16}.chip-text-blue{fill:#1d4ed8;font:600 13px 'PingFang SC','Noto Sans CJK SC',sans-serif}.chip-text-green{fill:#15803d;font:600 13px 'PingFang SC','Noto Sans CJK SC',sans-serif}.chip-text-amber{fill:#92400e;font:600 13px 'PingFang SC','Noto Sans CJK SC',sans-serif}.chip-text-red{fill:#b91c1c;font:600 13px 'PingFang SC','Noto Sans CJK SC',sans-serif}.chip-text-purple{fill:#6d28d9;font:600 13px 'PingFang SC','Noto Sans CJK SC',sans-serif}.footer{fill:#fff;stroke:#e5e7eb;stroke-width:1}.drawer{fill:#fff;stroke:#d1d5db;stroke-width:1}.muted{fill:#9ca3af;font:400 14px 'PingFang SC','Noto Sans CJK SC',sans-serif}</style><rect x="0" y="0" width="1600" height="1000" class="bg"/><rect x="0" y="0" width="240" height="1000" class="sidebar"/><text x="32" y="54" class="brand">Ingate</text><text x="32" y="82" class="brand-sub">AI Gateway Console</text><text x="54" y="145" class="nav-text">首页</text><text x="54" y="199" class="nav-text">网关</text><rect x="24" y="226" width="192" height="42" class="nav-active"/><text x="54" y="253" class="nav-active-text">路由</text><text x="54" y="307" class="nav-text">后端服务</text><text x="54" y="361" class="nav-text">证书</text><text x="54" y="415" class="nav-text">插件</text><text x="54" y="469" class="nav-text">监控</text><text x="54" y="523" class="nav-text">系统设置</text><text x="32" y="914" class="sidebar-muted">当前环境</text><text x="32" y="944" class="sidebar-text">生产环境</text><text x="290" y="50" class="title">路由策略配置</text><text x="290" y="82" class="subtitle">从策略列表打开右侧抽屉，编辑当前路由的具体参数</text><rect x="1188" y="24" width="154" height="40" class="env-pill"/><text x="1208" y="50" class="body">生产环境</text><text x="1314" y="50" class="muted">▼</text><rect x="290" y="112" width="760" height="788" class="card"/><text x="318" y="160" class="section">创建路由 / 配置策略</text><text x="318" y="194" class="small">左侧是策略目录，中间展示当前路由已启用策略；点击编辑打开右侧抽屉</text><rect x="318" y="240" width="210" height="560" class="panel"/><text x="348" y="286" class="body-strong">访问控制</text><text x="348" y="346" class="body-strong">流量治理</text><text x="348" y="406" class="body-strong">请求处理</text><text x="348" y="466" class="body-strong">AI 治理</text><text x="348" y="526" class="body-strong">观测审计</text><rect x="558" y="240" width="450" height="56" class="table-head"/><text x="572" y="274" class="label">策略</text><text x="732" y="274" class="label">来源</text><text x="902" y="274" class="label">状态</text><line x1="558" y1="296" x2="1008" y2="296" class="line"/><text x="572" y="336" class="body-strong">API Key 鉴权</text><text x="732" y="336" class="body">auth 插件</text><text x="902" y="336" class="body">已启用</text><line x1="558" y1="362" x2="1008" y2="362" class="line"/><text x="572" y="402" class="body-strong">超时</text><text x="732" y="402" class="body">网关原生</text><text x="902" y="402" class="body">已启用</text><line x1="558" y1="428" x2="1008" y2="428" class="line"/><text x="572" y="468" class="body-strong">Token 配额</text><text x="732" y="468" class="body">AI 插件</text><text x="902" y="468" class="body">编辑中</text><rect x="1080" y="0" width="520" height="1000" class="drawer"/><text x="1116" y="66" class="title">编辑策略：Token 配额</text><text x="1116" y="104" class="small">该配置只作用于当前路由，不会作为全局默认值影响其它路由</text><text x="1116" y="158" class="label">限额维度</text><rect x="1116" y="174" width="360" height="42" class="field"/><text x="1132" y="202" class="body">调用方 + 模型</text><text x="1450" y="202" class="muted">▼</text><text x="1116" y="266" class="label">每日 Token 上限 *</text><rect x="1116" y="282" width="360" height="42" class="field"/><text x="1132" y="310" class="body">1000000</text><text x="1116" y="374" class="label">超限处理 *</text><rect x="1116" y="390" width="360" height="42" class="field"/><text x="1132" y="418" class="body">拒绝请求</text><text x="1450" y="418" class="muted">▼</text><text x="1116" y="482" class="label">统计能力来源 *</text><rect x="1116" y="498" width="360" height="42" class="field"/><text x="1132" y="526" class="body">AI Token 统计 v1.4.2</text><text x="1450" y="526" class="muted">▼</text><text x="1116" y="612" class="section">生效说明</text><text x="1116" y="660" class="body">保存后由控制面下发到当前路由</text><text x="1116" y="696" class="body">同一插件可被其它路由配置不同参数</text><rect x="1210" y="900" width="86" height="38" class="button"/><text x="1228" y="924" class="button-text">取消</text><rect x="1320" y="900" width="100" height="38" class="button-primary"/><text x="1338" y="924" class="button-primary-text">保存策略</text></svg>