<svg xmlns="http://www.w3.org/2000/svg" width="1600" height="1000" viewBox="0 0 1600 1000">
<style>
  .bg{fill:#f6f8fb}.sidebar{fill:#111827}.brand{fill:#fff;font:700 24px 'PingFang SC','Noto Sans CJK SC',sans-serif}.brand-sub{fill:#9ca3af;font:400 13px 'PingFang SC','Noto Sans CJK SC',sans-serif}.nav-text{fill:#d1d5db;font:500 17px 'PingFang SC','Noto Sans CJK SC',sans-serif}.nav-active{fill:#2563eb;rx:8}.nav-active-text{fill:#fff;font:700 17px 'PingFang SC','Noto Sans CJK SC',sans-serif}.sidebar-muted{fill:#9ca3af;font:400 14px 'PingFang SC','Noto Sans CJK SC',sans-serif}.sidebar-text{fill:#fff;font:600 17px 'PingFang SC','Noto Sans CJK SC',sans-serif}.title{fill:#111827;font:700 28px 'PingFang SC','Noto Sans CJK SC',sans-serif}.subtitle{fill:#6b7280;font:400 15px 'PingFang SC','Noto Sans CJK SC',sans-serif}.section{fill:#111827;font:700 19px 'PingFang SC','Noto Sans CJK SC',sans-serif}.body{fill:#374151;font:400 15px 'PingFang SC','Noto Sans CJK SC',sans-serif}.body-strong{fill:#111827;font:700 15px 'PingFang SC','Noto Sans CJK SC',sans-serif}.small{fill:#6b7280;font:400 13px 'PingFang SC','Noto Sans CJK SC',sans-serif}.muted{fill:#9ca3af;font:400 14px 'PingFang SC','Noto Sans CJK SC',sans-serif}.label{fill:#6b7280;font:600 13px 'PingFang SC','Noto Sans CJK SC',sans-serif}.metric{fill:#111827;font:800 30px 'DIN Alternate','PingFang SC',sans-serif}.card{fill:#fff;stroke:#e5e7eb;stroke-width:1;rx:8}.panel{fill:#fff;stroke:#e5e7eb;stroke-width:1;rx:6}.field{fill:#fff;stroke:#cbd5e1;stroke-width:1;rx:6}.table-head{fill:#f3f4f6;rx:6}.line{stroke:#e5e7eb;stroke-width:1}.button{fill:#fff;stroke:#cbd5e1;stroke-width:1;rx:6}.button-text{fill:#374151;font:600 14px 'PingFang SC','Noto Sans CJK SC',sans-serif}.button-primary{fill:#2563eb;rx:6}.button-primary-text{fill:#fff;font:700 14px 'PingFang SC','Noto Sans CJK SC',sans-serif}.env-pill{fill:#fff;stroke:#d1d5db;rx:20}.chip-blue{fill:#dbeafe;rx:16}.chip-green{fill:#dcfce7;rx:16}.chip-amber{fill:#fef3c7;rx:16}.chip-red{fill:#fee2e2;rx:16}.chip-purple{fill:#ede9fe;rx:16}.chip-text-blue{fill:#1d4ed8;font:600 13px 'PingFang SC','Noto Sans CJK SC',sans-serif}.chip-text-green{fill:#15803d;font:600 13px 'PingFang SC','Noto Sans CJK SC',sans-serif}.chip-text-amber{fill:#92400e;font:600 13px 'PingFang SC','Noto Sans CJK SC',sans-serif}.chip-text-red{fill:#b91c1c;font:600 13px 'PingFang SC','Noto Sans CJK SC',sans-serif}.chip-text-purple{fill:#6d28d9;font:600 13px 'PingFang SC','Noto Sans CJK SC',sans-serif}.check{fill:#fff;stroke:#cbd5e1;rx:4}.check-on{fill:#2563eb;rx:4}.check-text{fill:#fff;font:700 14px 'PingFang SC','Noto Sans CJK SC',sans-serif}.footer{fill:#fff;stroke:#e5e7eb;stroke-width:1}.tab{fill:#f3f4f6;rx:18}.tab-on{fill:#2563eb;rx:18}.tab-text{fill:#374151;font:600 14px 'PingFang SC','Noto Sans CJK SC',sans-serif}.tab-on-text{fill:#fff;font:700 14px 'PingFang SC','Noto Sans CJK SC',sans-serif}
</style>
<rect x="0" y="0" width="1600" height="1000" class="bg"/>
<rect x="0" y="0" width="240" height="1000" class="sidebar"/>
<text x="32" y="54" class="brand">Ingate</text>
<text x="32" y="82" class="brand-sub">AI Gateway Console</text>
<text x="54" y="145" class="nav-text">首页</text>
<text x="54" y="199" class="nav-text">网关</text>
<text x="54" y="253" class="nav-text">路由</text>
<rect x="24" y="280" width="192" height="42" class="nav-active"/><text x="54" y="307" class="nav-active-text">后端服务</text>
<text x="54" y="361" class="nav-text">证书</text>
<text x="54" y="415" class="nav-text">插件</text>
<text x="54" y="469" class="nav-text">监控</text>
<text x="54" y="523" class="nav-text">系统设置</text>
<text x="32" y="914" class="sidebar-muted">当前环境</text>
<text x="32" y="944" class="sidebar-text">生产环境</text>
<text x="290" y="50" class="title">创建后端服务</text><text x="290" y="82" class="subtitle">创建可被路由选择的转发目标</text><rect x="1188" y="24" width="154" height="40" class="env-pill"/><text x="1208" y="50" class="body">生产环境</text><text x="1314" y="50" class="muted">▼</text>
<rect x="290" y="112" width="1260" height="748" class="card"/><text x="318" y="160" class="section">基础信息</text><text x="318" y="198" class="label">服务名称 *</text><rect x="318" y="212" width="300" height="42" class="field"/><text x="334" y="240" class="body">orders-service</text><text x="650" y="198" class="label">服务类型 *</text><rect x="650" y="212" width="260" height="42" class="field"/><text x="666" y="240" class="body">应用</text><text x="882" y="240" class="muted">▼</text><text x="942" y="198" class="label">描述</text><rect x="942" y="212" width="360" height="42" class="field"/><text x="958" y="240" class="body">订单服务</text><text x="318" y="320" class="section">接入配置</text><text x="318" y="358" class="label">协议 *</text><rect x="318" y="372" width="220" height="42" class="field"/><text x="334" y="400" class="body">HTTP</text><text x="510" y="400" class="muted">▼</text><text x="570" y="358" class="label">负载均衡</text><rect x="570" y="372" width="260" height="42" class="field"/><text x="586" y="400" class="body">按权重</text><text x="802" y="400" class="muted">▼</text><text x="862" y="358" class="label">连接超时</text><rect x="862" y="372" width="200" height="42" class="field"/><text x="878" y="400" class="body">3 秒</text><text x="318" y="492" class="section">端点地址</text><rect x="318" y="516" width="900" height="44" class="table-head"/><text x="332" y="544" class="label">地址</text><text x="632" y="544" class="label">端口</text><text x="792" y="544" class="label">权重</text><text x="952" y="544" class="label">操作</text><line x1="318" y1="560" x2="1218" y2="560" class="line"/><text x="332" y="596" class="body-strong">10.0.1.12</text><text x="632" y="596" class="body">8080</text><text x="792" y="596" class="body">50</text><text x="952" y="596" class="body">删除</text><line x1="318" y1="618" x2="1218" y2="618" class="line"/><text x="332" y="654" class="body-strong">10.0.1.13</text><text x="632" y="654" class="body">8080</text><text x="792" y="654" class="body">30</text><text x="952" y="654" class="body">删除</text><line x1="318" y1="676" x2="1218" y2="676" class="line"/><text x="332" y="712" class="body-strong">10.0.1.14</text><text x="632" y="712" class="body">8080</text><text x="792" y="712" class="body">20</text><text x="952" y="712" class="body">删除</text><line x1="318" y1="734" x2="1218" y2="734" class="line"/><rect x="1248" y="516" width="230" height="218" class="panel"/><text x="1274" y="558" class="body-strong">服务类型说明</text><text x="1274" y="600" class="small">应用、模型服务、Agent 服务、MCP 服务都在这里维护</text><rect x="240" y="900" width="1360" height="100" class="footer"/><rect x="1110" y="924" width="86" height="38" class="button"/><text x="1128" y="948" class="button-text">取消</text><rect x="1220" y="924" width="100" height="38" class="button-primary"/><text x="1238" y="948" class="button-primary-text">保存服务</text>
</svg>