<svg xmlns="http://www.w3.org/2000/svg" width="1600" height="1000" viewBox="0 0 1600 1000">
<style>
  .bg{fill:#f6f8fb}.sidebar{fill:#111827}.brand{fill:#fff;font:700 24px 'PingFang SC','Noto Sans CJK SC',sans-serif}.brand-sub{fill:#9ca3af;font:400 13px 'PingFang SC','Noto Sans CJK SC',sans-serif}.nav-text{fill:#d1d5db;font:500 17px 'PingFang SC','Noto Sans CJK SC',sans-serif}.nav-active{fill:#2563eb;rx:8}.nav-active-text{fill:#fff;font:700 17px 'PingFang SC','Noto Sans CJK SC',sans-serif}.sidebar-muted{fill:#9ca3af;font:400 14px 'PingFang SC','Noto Sans CJK SC',sans-serif}.sidebar-text{fill:#fff;font:600 17px 'PingFang SC','Noto Sans CJK SC',sans-serif}.title{fill:#111827;font:700 28px 'PingFang SC','Noto Sans CJK SC',sans-serif}.subtitle{fill:#6b7280;font:400 15px 'PingFang SC','Noto Sans CJK SC',sans-serif}.section{fill:#111827;font:700 19px 'PingFang SC','Noto Sans CJK SC',sans-serif}.body{fill:#374151;font:400 15px 'PingFang SC','Noto Sans CJK SC',sans-serif}.body-strong{fill:#111827;font:700 15px 'PingFang SC','Noto Sans CJK SC',sans-serif}.small{fill:#6b7280;font:400 13px 'PingFang SC','Noto Sans CJK SC',sans-serif}.muted{fill:#9ca3af;font:400 14px 'PingFang SC','Noto Sans CJK SC',sans-serif}.label{fill:#6b7280;font:600 13px 'PingFang SC','Noto Sans CJK SC',sans-serif}.metric{fill:#111827;font:800 30px 'DIN Alternate','PingFang SC',sans-serif}.card{fill:#fff;stroke:#e5e7eb;stroke-width:1;rx:8}.panel{fill:#fff;stroke:#e5e7eb;stroke-width:1;rx:6}.field{fill:#fff;stroke:#cbd5e1;stroke-width:1;rx:6}.table-head{fill:#f3f4f6;rx:6}.line{stroke:#e5e7eb;stroke-width:1}.button{fill:#fff;stroke:#cbd5e1;stroke-width:1;rx:6}.button-text{fill:#374151;font:600 14px 'PingFang SC','Noto Sans CJK SC',sans-serif}.button-primary{fill:#2563eb;rx:6}.button-primary-text{fill:#fff;font:700 14px 'PingFang SC','Noto Sans CJK SC',sans-serif}.env-pill{fill:#fff;stroke:#d1d5db;rx:20}.chip-blue{fill:#dbeafe;rx:16}.chip-green{fill:#dcfce7;rx:16}.chip-amber{fill:#fef3c7;rx:16}.chip-red{fill:#fee2e2;rx:16}.chip-purple{fill:#ede9fe;rx:16}.chip-text-blue{fill:#1d4ed8;font:600 13px 'PingFang SC','Noto Sans CJK SC',sans-serif}.chip-text-green{fill:#15803d;font:600 13px 'PingFang SC','Noto Sans CJK SC',sans-serif}.chip-text-amber{fill:#92400e;font:600 13px 'PingFang SC','Noto Sans CJK SC',sans-serif}.chip-text-red{fill:#b91c1c;font:600 13px 'PingFang SC','Noto Sans CJK SC',sans-serif}.chip-text-purple{fill:#6d28d9;font:600 13px 'PingFang SC','Noto Sans CJK SC',sans-serif}.check{fill:#fff;stroke:#cbd5e1;rx:4}.check-on{fill:#2563eb;rx:4}.check-text{fill:#fff;font:700 14px 'PingFang SC','Noto Sans CJK SC',sans-serif}.footer{fill:#fff;stroke:#e5e7eb;stroke-width:1}.tab{fill:#f3f4f6;rx:18}.tab-on{fill:#2563eb;rx:18}.tab-text{fill:#374151;font:600 14px 'PingFang SC','Noto Sans CJK SC',sans-serif}.tab-on-text{fill:#fff;font:700 14px 'PingFang SC','Noto Sans CJK SC',sans-serif}
</style>
<rect x="0" y="0" width="1600" height="1000" class="bg"/>
<rect x="0" y="0" width="240" height="1000" class="sidebar"/>
<text x="32" y="54" class="brand">Ingate</text>
<text x="32" y="82" class="brand-sub">AI Gateway Console</text>
<text x="54" y="145" class="nav-text">首页</text>
<text x="54" y="199" class="nav-text">网关</text>
<text x="54" y="253" class="nav-text">路由</text>
<rect x="24" y="280" width="192" height="42" class="nav-active"/><text x="54" y="307" class="nav-active-text">后端服务</text>
<text x="54" y="361" class="nav-text">证书</text>
<text x="54" y="415" class="nav-text">插件</text>
<text x="54" y="469" class="nav-text">监控</text>
<text x="54" y="523" class="nav-text">系统设置</text>
<text x="32" y="914" class="sidebar-muted">当前环境</text>
<text x="32" y="944" class="sidebar-text">生产环境</text>
<text x="290" y="50" class="title">后端服务详情</text><text x="290" y="82" class="subtitle">只读查看服务、端点和关联路由</text><rect x="1188" y="24" width="154" height="40" class="env-pill"/><text x="1208" y="50" class="body">生产环境</text><text x="1314" y="50" class="muted">▼</text><rect x="1360" y="24" width="100" height="38" class="button"/><text x="1378" y="48" class="button-text">返回列表</text><rect x="1468" y="24" width="100" height="38" class="button"/><text x="1486" y="48" class="button-text">刷新状态</text>
<rect x="290" y="112" width="1260" height="160" class="card"/><text x="318" y="160" class="section">orders-service</text><rect x="480" y="140" width="64" height="32" class="chip-blue"/><text x="494" y="161" class="chip-text-blue">应用</text><rect x="524" y="140" width="64" height="32" class="chip-green"/><text x="538" y="161" class="chip-text-green">健康</text><text x="318" y="210" class="label">协议</text><text x="366" y="210" class="body-strong">HTTP</text><text x="500" y="210" class="label">关联路由</text><text x="580" y="210" class="body-strong">18</text><text x="700" y="210" class="label">更新时间</text><text x="780" y="210" class="body-strong">2025-04-30 14:20:35</text><text x="318" y="250" class="small">详情页只读，编辑从列表操作进入</text><text x="318" y="320" class="section">端点状态</text><rect x="318" y="344" width="1188" height="44" class="table-head"/><text x="332" y="372" class="label">地址</text><text x="692" y="372" class="label">权重</text><text x="812" y="372" class="label">健康状态</text><text x="952" y="372" class="label">最近检查</text><line x1="318" y1="388" x2="1506" y2="388" class="line"/><text x="332" y="424" class="body-strong">10.0.1.12:8080</text><text x="692" y="424" class="body">50</text><text x="812" y="424" class="body">健康</text><text x="952" y="424" class="body">2025-04-30 14:20:30</text><line x1="318" y1="446" x2="1506" y2="446" class="line"/><text x="332" y="482" class="body-strong">10.0.1.13:8080</text><text x="692" y="482" class="body">30</text><text x="812" y="482" class="body">健康</text><text x="952" y="482" class="body">2025-04-30 14:20:30</text><line x1="318" y1="504" x2="1506" y2="504" class="line"/><text x="332" y="540" class="body-strong">10.0.1.14:8080</text><text x="692" y="540" class="body">20</text><text x="812" y="540" class="body">健康</text><text x="952" y="540" class="body">2025-04-30 14:20:30</text><line x1="318" y1="562" x2="1506" y2="562" class="line"/><text x="318" y="620" class="section">关联路由</text><rect x="318" y="644" width="1188" height="44" class="table-head"/><text x="332" y="672" class="label">路由</text><text x="592" y="672" class="label">网关</text><text x="812" y="672" class="label">策略</text><text x="1232" y="672" class="label">状态</text><line x1="318" y1="688" x2="1506" y2="688" class="line"/><text x="332" y="724" class="body-strong">orders-api</text><text x="592" y="724" class="body">public-gateway</text><text x="812" y="724" class="body">认证 / 限流 / 超时</text><text x="1232" y="724" class="body">生效</text><line x1="318" y1="746" x2="1506" y2="746" class="line"/><text x="332" y="782" class="body-strong">orders-internal</text><text x="592" y="782" class="body">internal-gateway</text><text x="812" y="782" class="body">认证 / 路径改写</text><text x="1232" y="782" class="body">生效</text><line x1="318" y1="804" x2="1506" y2="804" class="line"/>
</svg>